# xmcd CD database file
#
# Track frame offsets:
#	150
#	8881
#	38461
#	62957
#	100129
#	126745
#	147213
#	158843
#	189173
#	204499
#
# Disc length: 2970 seconds
#
# Revision: 0
# Processed by: cddbd v1.5PL3 Copyright (c) Steve Scherf et al.
# Submitted via: CDex 1.51
#
DISCID=850b980a
DTITLE=Kazumi Watanabe - Kylyn
DYEAR=1900
DGENRE=Jazz
TTITLE0=199x
TTITLE1=Sonic boom
TTITLE2=Water ways flow backward again
TTITLE3=Milestones
TTITLE4=E-day project
TTITLE5=Akasaka Moon
TTITLE6=Kylyn
TTITLE7=I'll be there
TTITLE8=Mother Terra
TTITLE9=Tokyo Joe
EXTD=
EXTT0=
EXTT1=
EXTT2=
EXTT3=
EXTT4=
EXTT5=
EXTT6=
EXTT7=
EXTT8=
EXTT9=
PLAYORDER=
